<mxfile host="app.diagrams.net" modified="2020-12-12T09:18:30.944Z" agent="5.0 (Macintosh; Intel Mac OS X 10_14_6) AppleWebKit/537.36 (KHTML, like Gecko) Chrome/87.0.4280.88 Safari/537.36" etag="b9pq_DhbaVnqzY0TFF7g" version="14.0.1" type="github">
  <diagram id="qfZAIklT0-Iu9bgn7Vya" name="Page-1">
    <mxGraphModel dx="946" dy="486" grid="1" gridSize="10" guides="1" tooltips="1" connect="1" arrows="1" fold="1" page="1" pageScale="1" pageWidth="850" pageHeight="1100" math="0" shadow="0">
      <root>
        <mxCell id="0" />
        <mxCell id="1" parent="0" />
        <mxCell id="QV8ss7WhJCFryZhHTYQY-1" value="" style="endArrow=none;html=1;" edge="1" parent="1">
          <mxGeometry width="50" height="50" relative="1" as="geometry">
            <mxPoint x="140" y="420" as="sourcePoint" />
            <mxPoint x="140" y="80" as="targetPoint" />
          </mxGeometry>
        </mxCell>
        <mxCell id="QV8ss7WhJCFryZhHTYQY-2" value="" style="endArrow=none;html=1;" edge="1" parent="1">
          <mxGeometry width="50" height="50" relative="1" as="geometry">
            <mxPoint x="380" y="420" as="sourcePoint" />
            <mxPoint x="380" y="80" as="targetPoint" />
          </mxGeometry>
        </mxCell>
        <mxCell id="QV8ss7WhJCFryZhHTYQY-3" value="" style="endArrow=none;html=1;" edge="1" parent="1">
          <mxGeometry width="50" height="50" relative="1" as="geometry">
            <mxPoint x="600" y="420" as="sourcePoint" />
            <mxPoint x="600" y="80" as="targetPoint" />
          </mxGeometry>
        </mxCell>
        <mxCell id="QV8ss7WhJCFryZhHTYQY-4" value="" style="endArrow=none;html=1;" edge="1" parent="1">
          <mxGeometry width="50" height="50" relative="1" as="geometry">
            <mxPoint x="740" y="420" as="sourcePoint" />
            <mxPoint x="740" y="80" as="targetPoint" />
          </mxGeometry>
        </mxCell>
        <mxCell id="QV8ss7WhJCFryZhHTYQY-5" value="Todo" style="text;html=1;strokeColor=none;fillColor=none;align=center;verticalAlign=middle;whiteSpace=wrap;rounded=0;" vertex="1" parent="1">
          <mxGeometry x="50" y="60" width="40" height="20" as="geometry" />
        </mxCell>
        <mxCell id="QV8ss7WhJCFryZhHTYQY-6" value="Planning&amp;nbsp;" style="text;html=1;strokeColor=none;fillColor=none;align=center;verticalAlign=middle;whiteSpace=wrap;rounded=0;" vertex="1" parent="1">
          <mxGeometry x="240" y="60" width="50" height="20" as="geometry" />
        </mxCell>
        <mxCell id="QV8ss7WhJCFryZhHTYQY-7" value="Develop&lt;br&gt;" style="text;html=1;strokeColor=none;fillColor=none;align=center;verticalAlign=middle;whiteSpace=wrap;rounded=0;" vertex="1" parent="1">
          <mxGeometry x="480" y="60" width="40" height="20" as="geometry" />
        </mxCell>
        <mxCell id="QV8ss7WhJCFryZhHTYQY-8" value="Test" style="text;html=1;strokeColor=none;fillColor=none;align=center;verticalAlign=middle;whiteSpace=wrap;rounded=0;" vertex="1" parent="1">
          <mxGeometry x="640" y="60" width="40" height="20" as="geometry" />
        </mxCell>
        <mxCell id="QV8ss7WhJCFryZhHTYQY-9" value="Done" style="text;html=1;strokeColor=none;fillColor=none;align=center;verticalAlign=middle;whiteSpace=wrap;rounded=0;" vertex="1" parent="1">
          <mxGeometry x="770" y="60" width="40" height="20" as="geometry" />
        </mxCell>
        <mxCell id="QV8ss7WhJCFryZhHTYQY-16" value="" style="endArrow=none;html=1;fontColor=#999999;strokeColor=#CCCCCC;" edge="1" parent="1">
          <mxGeometry width="50" height="50" relative="1" as="geometry">
            <mxPoint x="260" y="400" as="sourcePoint" />
            <mxPoint x="259.5" y="100" as="targetPoint" />
          </mxGeometry>
        </mxCell>
        <mxCell id="QV8ss7WhJCFryZhHTYQY-18" value="In-Progress" style="text;html=1;strokeColor=none;fillColor=none;align=center;verticalAlign=middle;whiteSpace=wrap;rounded=0;fontColor=#999999;" vertex="1" parent="1">
          <mxGeometry x="160" y="90" width="80" height="20" as="geometry" />
        </mxCell>
        <mxCell id="QV8ss7WhJCFryZhHTYQY-19" value="Completed" style="text;html=1;strokeColor=none;fillColor=none;align=center;verticalAlign=middle;whiteSpace=wrap;rounded=0;fontColor=#999999;" vertex="1" parent="1">
          <mxGeometry x="300" y="90" width="40" height="20" as="geometry" />
        </mxCell>
        <mxCell id="QV8ss7WhJCFryZhHTYQY-20" value="" style="endArrow=none;html=1;fontColor=#999999;strokeColor=#CCCCCC;" edge="1" parent="1">
          <mxGeometry width="50" height="50" relative="1" as="geometry">
            <mxPoint x="490" y="400" as="sourcePoint" />
            <mxPoint x="489.5" y="100" as="targetPoint" />
          </mxGeometry>
        </mxCell>
        <mxCell id="QV8ss7WhJCFryZhHTYQY-21" value="In-Progress" style="text;html=1;strokeColor=none;fillColor=none;align=center;verticalAlign=middle;whiteSpace=wrap;rounded=0;fontColor=#999999;" vertex="1" parent="1">
          <mxGeometry x="390" y="90" width="80" height="20" as="geometry" />
        </mxCell>
        <mxCell id="QV8ss7WhJCFryZhHTYQY-22" value="Completed" style="text;html=1;strokeColor=none;fillColor=none;align=center;verticalAlign=middle;whiteSpace=wrap;rounded=0;fontColor=#999999;" vertex="1" parent="1">
          <mxGeometry x="530" y="90" width="40" height="20" as="geometry" />
        </mxCell>
        <mxCell id="QV8ss7WhJCFryZhHTYQY-23" value="BA1, BA2" style="rounded=0;whiteSpace=wrap;html=1;fillColor=#dae8fc;strokeColor=#6c8ebf;" vertex="1" parent="1">
          <mxGeometry x="160" y="140" width="80" height="30" as="geometry" />
        </mxCell>
        <mxCell id="QV8ss7WhJCFryZhHTYQY-24" value="" style="rounded=0;whiteSpace=wrap;html=1;fillColor=#dae8fc;strokeColor=#6c8ebf;" vertex="1" parent="1">
          <mxGeometry x="280" y="250" width="80" height="30" as="geometry" />
        </mxCell>
        <mxCell id="QV8ss7WhJCFryZhHTYQY-25" value="Tester1, Tester2" style="rounded=0;whiteSpace=wrap;html=1;fillColor=#dae8fc;strokeColor=#6c8ebf;" vertex="1" parent="1">
          <mxGeometry x="630" y="110" width="80" height="30" as="geometry" />
        </mxCell>
        <mxCell id="QV8ss7WhJCFryZhHTYQY-26" value="&lt;span&gt;Tester1, Tester2&lt;/span&gt;" style="rounded=0;whiteSpace=wrap;html=1;fillColor=#dae8fc;strokeColor=#6c8ebf;" vertex="1" parent="1">
          <mxGeometry x="630" y="160" width="80" height="30" as="geometry" />
        </mxCell>
        <mxCell id="QV8ss7WhJCFryZhHTYQY-28" value="" style="rounded=0;whiteSpace=wrap;html=1;fillColor=#dae8fc;strokeColor=#6c8ebf;" vertex="1" parent="1">
          <mxGeometry x="760" y="110" width="80" height="30" as="geometry" />
        </mxCell>
        <mxCell id="QV8ss7WhJCFryZhHTYQY-29" value="" style="rounded=0;whiteSpace=wrap;html=1;fillColor=#dae8fc;strokeColor=#6c8ebf;" vertex="1" parent="1">
          <mxGeometry x="760" y="160" width="80" height="30" as="geometry" />
        </mxCell>
        <mxCell id="QV8ss7WhJCFryZhHTYQY-30" value="" style="rounded=0;whiteSpace=wrap;html=1;fillColor=#dae8fc;strokeColor=#6c8ebf;" vertex="1" parent="1">
          <mxGeometry x="280" y="140" width="80" height="30" as="geometry" />
        </mxCell>
        <mxCell id="QV8ss7WhJCFryZhHTYQY-31" value="" style="rounded=0;whiteSpace=wrap;html=1;fillColor=#dae8fc;strokeColor=#6c8ebf;" vertex="1" parent="1">
          <mxGeometry x="280" y="190" width="80" height="30" as="geometry" />
        </mxCell>
        <mxCell id="QV8ss7WhJCFryZhHTYQY-32" value="" style="rounded=0;whiteSpace=wrap;html=1;fillColor=#dae8fc;strokeColor=#6c8ebf;" vertex="1" parent="1">
          <mxGeometry x="510" y="245" width="80" height="30" as="geometry" />
        </mxCell>
        <mxCell id="QV8ss7WhJCFryZhHTYQY-33" value="" style="rounded=0;whiteSpace=wrap;html=1;fillColor=#dae8fc;strokeColor=#6c8ebf;" vertex="1" parent="1">
          <mxGeometry x="510" y="135" width="80" height="30" as="geometry" />
        </mxCell>
        <mxCell id="QV8ss7WhJCFryZhHTYQY-34" value="" style="rounded=0;whiteSpace=wrap;html=1;fillColor=#dae8fc;strokeColor=#6c8ebf;" vertex="1" parent="1">
          <mxGeometry x="510" y="185" width="80" height="30" as="geometry" />
        </mxCell>
        <mxCell id="QV8ss7WhJCFryZhHTYQY-35" value="" style="rounded=0;whiteSpace=wrap;html=1;fillColor=#dae8fc;strokeColor=#6c8ebf;" vertex="1" parent="1">
          <mxGeometry x="510" y="300" width="80" height="30" as="geometry" />
        </mxCell>
        <mxCell id="QV8ss7WhJCFryZhHTYQY-36" value="" style="rounded=0;whiteSpace=wrap;html=1;fillColor=#dae8fc;strokeColor=#6c8ebf;" vertex="1" parent="1">
          <mxGeometry x="410" y="135" width="80" height="30" as="geometry" />
        </mxCell>
      </root>
    </mxGraphModel>
  </diagram>
</mxfile>
